<svg version="1.1" viewBox="0.0 0.0 500.0 500.0" fill="none" stroke="none" stroke-linecap="square" stroke-miterlimit="10" xmlns:xlink="http://www.w3.org/1999/xlink" xmlns="http://www.w3.org/2000/svg"><clipPath id="p.0"><path d="m0 0l500.0 0l0 500.0l-500.0 0l0 -500.0z" clip-rule="nonzero"/></clipPath><g clip-path="url(#p.0)"><path fill="#000000" fill-opacity="0.0" d="m0 0l500.0 0l0 500.0l-500.0 0z" fill-rule="evenodd"/><path fill="#ffffff" d="m90.740776 292.54602l0 0c0 -57.507187 46.618797 -104.12598 104.125984 -104.12598l0 0c27.615936 0 54.100784 10.970383 73.628204 30.497787c19.527405 19.52742 30.497772 46.012253 30.497772 73.62819l0 0c0 57.507202 -46.618774 104.12598 -104.12598 104.12598l0 0c-57.507187 0 -104.125984 -46.618774 -104.125984 -104.12598z" fill-rule="evenodd"/><path stroke="#000000" stroke-width="12.0" stroke-linejoin="round" stroke-linecap="butt" d="m90.740776 292.54602l0 0c0 -57.507187 46.618797 -104.12598 104.125984 -104.12598l0 0c27.615936 0 54.100784 10.970383 73.628204 30.497787c19.527405 19.52742 30.497772 46.012253 30.497772 73.62819l0 0c0 57.507202 -46.618774 104.12598 -104.12598 104.12598l0 0c-57.507187 0 -104.125984 -46.618774 -104.125984 -104.12598z" fill-rule="evenodd"/><path fill="#000000" d="m334.9038 181.3122l-140.20473 104.06299l33.65355 -171.33858z" fill-rule="evenodd"/><path stroke="#000000" stroke-width="12.0" stroke-linejoin="round" stroke-linecap="butt" d="m334.9038 181.3122l-140.20473 104.06299l33.65355 -171.33858z" fill-rule="evenodd"/><path fill="#ffffff" d="m225.44089 109.85842l0 0c0 -45.635246 36.99469 -82.62992 82.62991 -82.62992l0 0c21.914825 0 42.932068 8.705627 58.428192 24.201744c15.496124 15.496117 24.201752 36.51336 24.201752 58.428177l0 0c0 45.635246 -36.99469 82.62992 -82.629944 82.62992l0 0c-45.635223 0 -82.62991 -36.994675 -82.62991 -82.62992z" fill-rule="evenodd"/><path stroke="#000000" stroke-width="12.0" stroke-linejoin="round" stroke-linecap="butt" d="m225.44089 109.85842l0 0c0 -45.635246 36.99469 -82.62992 82.62991 -82.62992l0 0c21.914825 0 42.932068 8.705627 58.428192 24.201744c15.496124 15.496117 24.201752 36.51336 24.201752 58.428177l0 0c0 45.635246 -36.99469 82.62992 -82.629944 82.62992l0 0c-45.635223 0 -82.62991 -36.994675 -82.62991 -82.62992z" fill-rule="evenodd"/></g></svg>