<svg version="1.1" id="Layer_1" xmlns="http://www.w3.org/2000/svg" xmlns:xlink="http://www.w3.org/1999/xlink" x="0px" y="0px"
	 width="100%" viewBox="0 0 496 496" enable-background="new 0 0 496 496" xml:space="preserve">
<path fill="#000000" opacity="1.000000" stroke="none" 
	d="
M259.329163,75.907654 
	C236.661652,74.655907 214.962875,77.590057 194.088531,85.115105 
	C140.917847,104.282745 104.401344,140.491791 84.623512,193.485489 
	C83.533104,196.407227 82.737488,199.438995 82.393028,202.772842 
	C92.167770,191.037979 101.943146,179.303665 111.716255,167.567444 
	C112.675766,166.415192 113.564445,165.198364 114.584068,164.102783 
	C117.717445,160.736023 122.004364,160.043015 124.760139,162.607208 
	C128.039566,165.658661 127.801826,169.134277 125.203552,172.432770 
	C120.978394,177.796616 116.619980,183.056793 112.261551,188.314087 
	C100.247635,202.805710 88.172798,217.246964 76.199104,231.771652 
	C73.723747,234.774384 71.068916,237.334885 66.911263,236.067993 
	C62.685139,234.780258 62.216801,230.906601 61.678841,227.209213 
	C58.187088,203.210403 54.671726,179.215012 51.167542,155.218002 
	C50.999397,154.066513 50.757904,152.912659 50.731869,151.755829 
	C50.635460,147.471771 53.223694,144.050247 56.876167,144.039490 
	C60.895103,144.027649 63.528297,146.236847 64.159485,150.216034 
	C65.642311,159.564316 66.924377,168.944336 68.305946,178.308823 
	C68.931595,182.549561 69.600647,186.783890 70.430122,192.196411 
	C73.986076,183.460938 76.730286,175.627335 80.541061,168.255051 
	C109.001419,113.196007 153.275452,78.000404 214.074265,65.989326 
	C273.972107,54.156242 328.344116,68.365746 374.765869,108.354012 
	C409.727875,138.470734 430.397034,177.137451 437.369965,222.925156 
	C437.820435,225.883240 438.567932,228.794098 438.327454,231.831650 
	C438.052460,235.304825 436.185822,237.513901 432.825317,237.938629 
	C429.520020,238.356384 426.703827,236.887848 425.869934,233.553329 
	C424.582794,228.406281 423.775391,223.137558 422.809967,217.912033 
	C409.631165,146.579880 352.262360,90.057594 281.102661,78.198463 
	C274.029755,77.019730 266.940033,76.281013 259.329163,75.907654 
z"/>
<path fill="#000000" opacity="1.000000" stroke="none" 
	d="
M86.555588,313.493744 
	C108.473564,367.430481 146.943344,403.625366 202.324677,419.553528 
	C262.141968,436.757507 316.617950,423.737793 364.465027,383.963501 
	C389.405487,363.230927 406.713654,337.108856 417.212341,306.450806 
	C417.589996,305.347992 417.974548,304.245880 418.298553,303.126831 
	C418.620667,302.014313 418.870392,300.880798 419.324585,299.066467 
	C415.468231,301.738190 413.511749,305.359558 410.995758,308.394043 
	C403.446228,317.499451 396.083008,326.759308 388.645203,335.957336 
	C387.489777,337.386200 386.310822,338.791534 384.596497,339.601135 
	C381.846619,340.899719 379.346313,340.282745 377.191986,338.377594 
	C375.131134,336.555084 374.402466,334.181305 375.593262,331.605133 
	C376.350006,329.967804 377.355835,328.396393 378.491943,326.991028 
	C393.890289,307.944183 409.330261,288.931061 424.763550,269.912476 
	C425.498230,269.007080 426.271790,268.133331 427.016968,267.236298 
	C429.032623,264.809814 431.622681,263.935852 434.620239,264.764801 
	C437.478302,265.555206 438.917236,267.646759 439.373779,270.564972 
	C441.324982,283.037720 443.354767,295.498138 445.309662,307.970306 
	C447.161194,319.782837 448.966278,331.602661 450.762268,343.423767 
	C451.036133,345.226105 451.194183,347.049438 451.330292,348.868683 
	C451.635834,352.953674 449.923126,355.786285 445.783661,356.427063 
	C441.200745,357.136475 438.955139,354.286621 438.243134,350.247620 
	C436.916473,342.722046 435.850067,335.150635 434.671661,327.598877 
	C433.699249,321.367218 432.721527,315.136414 431.669434,308.414856 
	C429.527618,310.368591 429.456390,312.734589 428.680298,314.728638 
	C405.180420,375.109711 362.677826,415.725555 300.268402,432.924194 
	C189.911728,463.336029 85.672485,391.612579 64.934761,286.911987 
	C64.355003,283.984894 63.944221,281.006622 63.715282,278.032166 
	C63.414421,274.123260 65.394455,271.492767 69.194748,270.907074 
	C73.016708,270.318054 75.665497,272.381165 76.622910,276.071106 
	C77.537697,279.596710 77.986206,283.240479 78.746223,286.809631 
	C80.654449,295.770935 83.181618,304.556335 86.555588,313.493744 
z"/>
<path fill="#000000" opacity="1.000000" stroke="none" 
	d="
M223.820160,233.207367 
	C216.037811,226.948120 208.529785,220.913849 200.199356,214.218613 
	C211.128738,205.492416 221.501038,197.210983 232.094559,188.752945 
	C233.902649,191.961792 233.382919,194.519974 233.232635,196.902206 
	C232.980469,200.899780 234.659531,202.120636 238.480515,202.096085 
	C257.143829,201.976074 275.808319,202.032318 294.472412,202.044907 
	C301.328461,202.049530 301.334930,202.072937 301.346344,209.049164 
	C301.353180,213.215225 301.149506,217.391861 301.384247,221.544296 
	C301.597168,225.311127 300.036102,226.416229 296.428406,226.393784 
	C277.931732,226.278671 259.433838,226.351227 240.936356,226.364426 
	C233.335297,226.369858 233.359283,226.377228 233.277710,234.038651 
	C233.260468,235.657379 233.710007,237.370529 232.493591,239.127777 
	C229.001877,238.296432 226.911331,235.292847 223.820160,233.207367 
z"/>
<path fill="#000000" opacity="1.000000" stroke="none" 
	d="
M250.997147,275.651733 
	C255.658951,275.648743 259.827209,275.509033 263.982147,275.685028 
	C267.378143,275.828857 268.938690,274.602661 268.695038,271.078003 
	C268.514099,268.460114 268.659424,265.819672 268.659424,263.076599 
	C272.740753,263.974548 297.071075,283.086609 300.966034,288.385132 
	C290.740082,296.578827 280.490448,304.791504 270.059113,313.149780 
	C268.050293,310.016235 268.597229,307.441284 268.747498,305.074860 
	C269.002686,301.056366 267.286102,299.873169 263.490234,299.895996 
	C245.009460,300.006989 226.527603,299.947784 208.046158,299.930298 
	C200.669800,299.923309 200.666214,299.901550 200.660370,292.469177 
	C200.657227,288.473206 200.842102,284.467682 200.623260,280.484009 
	C200.419815,276.780121 201.886551,275.564270 205.543472,275.599121 
	C220.527069,275.741882 235.512848,275.654266 250.997147,275.651733 
z"/>
<path fill="#000000" opacity="1.000000" stroke="none" 
	d="
M393.439636,273.264832 
	C376.493408,301.511414 337.290283,302.701172 318.827881,276.619629 
	C308.078766,261.434540 307.902924,240.740326 318.322815,225.939697 
	C329.565399,209.970535 347.849701,203.653503 366.659973,208.184967 
	C391.607086,214.194824 408.890076,245.025879 393.439636,273.264832 
M391.629456,235.958817 
	C391.118774,234.911880 390.638245,233.848953 390.092896,232.820389 
	C381.535248,216.679947 363.514526,208.480667 345.805817,212.661057 
	C328.253784,216.804443 315.125122,232.947372 315.478394,251.215591 
	C315.963776,276.315826 338.974854,295.601898 365.051697,289.042023 
	C384.876068,284.055023 400.884033,262.105988 391.629456,235.958817 
z"/>
<path fill="#000000" opacity="1.000000" stroke="none" 
	d="
M121.788185,287.312347 
	C95.360359,268.447784 97.400856,229.496948 123.755707,213.222702 
	C138.136459,204.342499 153.754547,203.967056 168.491104,211.996994 
	C183.027618,219.917969 190.900955,232.794449 191.366379,249.770981 
	C191.862747,267.876709 183.837341,281.373688 168.351486,289.888153 
	C152.777573,298.451050 137.049545,297.323090 121.788185,287.312347 
M144.903473,211.672241 
	C144.249664,211.795975 143.599960,211.997452 142.941467,212.032120 
	C123.389145,213.061676 103.587364,232.501328 108.641602,259.195831 
	C111.909355,276.454803 129.063904,292.907776 152.364624,289.870300 
	C171.498383,287.376068 186.423813,271.158112 186.656570,251.881912 
	C186.933594,228.940887 169.767822,212.005493 144.903473,211.672241 
z"/>
<path fill="#000000" opacity="1.000000" stroke="none" 
	d="
M258.077362,123.071404 
	C258.019257,127.714401 258.026642,131.876205 257.869324,136.031769 
	C257.804321,137.748520 257.273529,139.550552 255.102524,139.494278 
	C252.859619,139.436157 252.707977,137.578003 252.644562,135.851562 
	C252.489288,131.624512 253.093521,127.410660 250.078064,123.561676 
	C248.639160,121.725060 250.322128,119.027695 251.443527,117.013718 
	C253.356888,113.577438 252.116669,108.102814 256.039642,106.502960 
	C259.452667,105.111069 263.820740,106.025742 267.767395,105.987587 
	C271.594910,105.950577 275.424316,106.058136 279.250946,105.991470 
	C282.937103,105.927254 284.856140,107.563782 284.857666,111.324013 
	C284.860901,119.311684 284.996979,127.301544 284.843689,135.285980 
	C284.780182,138.594391 283.569763,140.574646 279.423309,139.193146 
	C274.480530,137.546326 269.157959,137.633011 264.227814,139.074081 
	C259.967468,140.319382 258.986786,138.407349 258.924347,135.088547 
	C258.793335,128.126221 258.884583,121.159729 258.076477,114.193283 
	C258.076477,116.991425 258.076477,119.789558 258.077362,123.071404 
M265.386597,133.187378 
	C268.627014,134.341171 271.962646,133.595398 275.255951,133.671127 
	C277.452118,133.721649 278.742889,132.636139 278.776489,130.404968 
	C278.835693,126.471413 278.793060,122.536331 278.793060,118.141426 
	C277.466064,118.561302 276.685486,118.733307 275.978088,119.062569 
	C275.603149,119.237076 275.355377,119.684738 275.052856,120.006264 
	C278.127258,123.071571 279.316040,129.461166 277.324371,131.736221 
	C275.910217,133.351578 268.707306,133.557648 266.871857,132.035233 
	C264.634613,130.179535 265.312469,123.584114 268.156616,119.754784 
	C267.663269,118.036644 264.575470,118.226646 265.281372,115.090271 
	C265.558990,113.650612 269.154388,114.635674 268.941406,111.645691 
	C266.583923,111.119186 264.400452,110.922195 264.422424,114.198090 
	C264.463501,120.321693 263.727051,126.467117 265.386597,133.187378 
z"/>
<path fill="#000000" opacity="1.000000" stroke="none" 
	d="
M269.351959,377.093506 
	C270.321503,376.716675 270.978821,376.195465 271.552216,376.275574 
	C275.804199,376.869232 279.939484,377.422241 284.292969,376.203979 
	C286.212952,375.666687 288.479950,377.293457 289.127655,379.714905 
	C290.301453,384.102966 290.348450,388.590210 289.865723,393.070709 
	C289.701263,394.597015 289.030914,396.058105 287.138275,396.088104 
	C284.895752,396.123627 284.430908,394.367310 284.283844,392.696320 
	C284.036621,389.887726 284.071014,387.055481 283.903625,384.238159 
	C283.834778,383.078918 283.646698,381.753113 282.176788,381.579620 
	C280.508057,381.382629 279.685883,382.650452 279.561523,383.998779 
	C279.302948,386.802795 279.372864,389.635590 279.241943,392.453461 
	C279.150635,394.418396 278.641357,396.253296 276.163391,396.069275 
	C273.974640,395.906769 273.746368,394.107056 273.699493,392.381165 
	C273.631805,389.890076 273.672119,387.395691 273.581055,384.905823 
	C273.525024,383.373169 273.272308,381.674042 271.344452,381.588409 
	C269.498505,381.506439 268.767853,383.175537 268.599945,384.622223 
	C268.294830,387.250549 268.374268,389.923492 268.292999,392.577820 
	C268.238373,394.364105 267.880066,396.069366 265.667175,396.060669 
	C263.609528,396.052582 262.802307,394.534180 262.772888,392.697845 
	C262.706390,388.545410 262.657928,384.388397 262.779083,380.238403 
	C262.919586,375.424713 266.483002,377.326874 269.351959,377.093506 
z"/>
<path fill="#000000" opacity="1.000000" stroke="none" 
	d="
M168.319427,390.067261 
	C168.208084,391.832306 168.206787,393.172394 167.953629,394.463043 
	C167.738510,395.559753 166.804703,396.077515 165.727051,396.087158 
	C164.172195,396.101135 163.022934,395.159454 162.973663,393.738708 
	C162.806839,388.928497 162.781189,384.107300 162.912308,379.296051 
	C162.959167,377.576935 164.347412,376.414764 166.019653,376.924622 
	C168.156494,377.576111 170.063095,376.087067 171.740341,376.370117 
	C176.144180,377.113312 180.371155,376.606445 184.718048,376.263672 
	C187.089951,376.076599 188.776459,377.980042 189.401443,380.649292 
	C190.290009,384.444305 190.152863,388.246307 190.023239,392.060089 
	C189.959641,393.931549 189.602356,395.939331 187.199432,396.064972 
	C184.657043,396.197937 184.386688,394.083008 184.232910,392.265259 
	C184.023071,389.784515 184.123169,387.278931 183.968857,384.791565 
	C183.877914,383.325989 183.842911,381.432526 181.751587,381.570129 
	C179.979889,381.686737 179.452835,383.317474 179.385818,384.897705 
	C179.280182,387.388763 179.339386,389.886902 179.228653,392.377594 
	C179.141815,394.330536 178.619003,396.194580 176.166870,396.056519 
	C173.967010,395.932678 173.743042,394.114532 173.699173,392.384308 
	C173.640182,390.057129 173.687805,387.726685 173.602722,385.400848 
	C173.541870,383.737488 173.517792,381.696594 171.314804,381.621490 
	C169.264374,381.551605 168.728577,383.484009 168.476501,385.140808 
	C168.253250,386.608124 168.359467,388.125580 168.319427,390.067261 
z"/>
<path fill="#000000" opacity="1.000000" stroke="none" 
	d="
M322.819275,390.767792 
	C322.802734,388.320312 322.829315,386.321899 322.768677,384.326172 
	C322.726685,382.943298 322.494690,381.476715 320.697906,381.504486 
	C319.078827,381.529510 318.429169,382.821808 318.339783,384.236908 
	C318.182526,386.726105 318.219086,389.226898 318.111847,391.720093 
	C318.023529,393.773285 317.847198,396.034210 315.122925,396.050385 
	C312.287109,396.067261 312.393463,393.589905 312.195618,391.668732 
	C312.008759,389.854187 312.084412,388.010986 312.073090,386.180237 
	C312.016907,377.083801 316.070160,373.940247 324.725464,376.733307 
	C326.981049,377.461212 328.756744,377.290771 330.895782,376.594086 
	C335.462830,375.106628 338.852600,377.413086 339.218872,382.253876 
	C339.481812,385.729767 339.315277,389.240784 339.280334,392.735535 
	C339.262146,394.558411 338.696136,396.180237 336.502502,396.077972 
	C334.411163,395.980499 333.815369,394.362244 333.757996,392.559479 
	C333.667999,389.732086 333.685699,386.901398 333.606537,384.073547 
	C333.571716,382.830627 333.158142,381.701538 331.733307,381.521576 
	C330.337494,381.345245 329.686188,382.322113 329.197632,383.466187 
	C328.177582,385.854797 328.556335,388.378723 328.383942,390.856201 
	C328.244720,392.856873 329.113068,395.806793 325.941528,395.954285 
	C323.005402,396.090851 322.974152,393.407623 322.819275,390.767792 
z"/>
<path fill="#000000" opacity="1.000000" stroke="none" 
	d="
M209.645660,377.672913 
	C217.043350,374.689941 220.040100,376.260315 220.896591,383.595825 
	C221.241638,386.551086 221.097549,389.580780 220.967346,392.567505 
	C220.893295,394.266205 220.337051,396.014160 218.175903,396.064240 
	C216.004257,396.114594 215.398270,394.413330 215.261093,392.692261 
	C215.036575,389.875397 215.076080,387.038452 214.913666,384.215210 
	C214.846893,383.054382 214.639450,381.727386 213.153320,381.584076 
	C211.489975,381.423645 210.679703,382.692627 210.548111,384.044220 
	C210.290802,386.686768 210.346024,389.358978 210.245575,392.017883 
	C210.172653,393.948547 209.825302,395.950531 207.454666,396.023590 
	C204.968521,396.100189 204.715042,394.056915 204.678345,392.134033 
	C204.633865,389.803345 204.668854,387.471039 204.616379,385.140625 
	C204.581604,383.596771 204.376450,381.817200 202.557251,381.623535 
	C200.456406,381.399963 199.740921,383.276398 199.557861,384.930664 
	C199.284348,387.402344 199.395294,389.915558 199.317291,392.410278 
	C199.263382,394.133850 199.124451,395.964630 196.867752,396.067719 
	C194.432861,396.178925 193.887497,394.366302 193.766541,392.395264 
	C193.685028,391.067291 193.702805,389.732422 193.699890,388.400574 
	C193.672272,375.780640 197.277420,373.334381 209.645660,377.672913 
z"/>
<path fill="#000000" opacity="1.000000" stroke="none" 
	d="
M171.647614,126.490372 
	C171.443344,124.146683 171.779892,121.463326 168.967422,121.683495 
	C166.569229,121.871231 166.372025,124.332855 166.347595,126.397781 
	C166.324020,128.392303 166.350021,130.387711 166.302505,132.381516 
	C166.261032,134.120850 166.002319,135.944397 163.811203,136.021042 
	C161.422760,136.104584 160.830338,134.272278 160.758743,132.298584 
	C160.674408,129.974014 160.745438,127.644035 160.674622,125.318665 
	C160.624863,123.684830 160.814194,121.557198 158.468567,121.593559 
	C156.309494,121.627029 156.166138,123.687683 156.044876,125.344322 
	C155.863068,127.827850 155.922256,130.331161 155.687866,132.807953 
	C155.526077,134.517532 154.960617,136.214310 152.746704,136.116776 
	C150.596069,136.022003 150.086029,134.317062 149.950302,132.615753 
	C149.778854,130.466934 149.829193,128.298538 149.825912,126.138527 
	C149.811951,116.978203 154.118134,113.856247 163.008011,116.871002 
	C164.952866,117.530533 166.427872,117.273926 168.209229,116.685608 
	C172.950150,115.119858 176.274841,116.917801 176.934235,121.756241 
	C177.423721,125.347855 177.206680,129.049744 177.128357,132.698715 
	C177.090469,134.463013 176.330231,136.110291 174.212708,136.021133 
	C172.018494,135.928726 171.740784,134.148819 171.697571,132.401260 
	C171.652390,130.573685 171.664658,128.744690 171.647614,126.490372 
z"/>
<path fill="#000000" opacity="1.000000" stroke="none" 
	d="
M185.625244,332.484314 
	C190.384018,329.459656 194.919983,333.223480 199.452957,332.116486 
	C200.412903,331.882019 201.079865,333.673859 201.093155,334.865387 
	C201.156021,340.506989 201.843552,346.200043 200.720474,351.773193 
	C199.451080,358.072266 194.178314,361.222809 188.017471,359.691559 
	C186.477707,359.308899 184.330017,359.233551 184.647049,356.875000 
	C184.962692,354.526672 186.842606,354.938812 188.550690,355.166504 
	C191.542160,355.565216 194.198425,355.321564 194.677673,350.959412 
	C189.545334,351.336334 184.700562,351.145538 182.708633,345.530151 
	C181.030029,340.798126 181.449371,336.372711 185.625244,332.484314 
M194.753799,339.003387 
	C193.963531,336.447449 192.165359,335.354401 189.848404,336.640717 
	C187.629745,337.872467 187.034882,340.237488 187.739365,342.690338 
	C188.249344,344.466003 189.058319,346.342407 191.291870,346.231598 
	C193.951462,346.099640 194.814636,344.144714 194.914551,341.758972 
	C194.942093,341.101135 194.900711,340.440399 194.753799,339.003387 
z"/>
<path fill="#000000" opacity="1.000000" stroke="none" 
	d="
M302.734131,140.481842 
	C306.406525,139.246338 311.682678,141.806442 312.122589,134.636200 
	C307.774445,136.996414 303.885223,136.787857 301.048767,132.795502 
	C298.322968,128.958832 298.227203,124.769547 300.059540,120.496086 
	C301.223633,117.781105 303.438934,116.346710 306.228790,116.090347 
	C309.457489,115.793663 312.435730,117.873848 315.904541,117.065079 
	C317.402191,116.715889 318.109985,118.892372 318.112091,120.423058 
	C318.119446,125.728821 318.429413,131.085007 317.817291,136.327789 
	C317.068390,142.742050 311.149811,146.358246 305.031036,144.734543 
	C303.061279,144.211838 300.907166,143.625443 302.734131,140.481842 
M306.043610,130.234085 
	C307.953735,131.948242 309.858124,131.614456 311.098114,129.643417 
	C312.498322,127.417648 312.406036,124.834618 311.066223,122.552467 
	C310.212006,121.097481 308.550262,120.777565 307.098694,121.465034 
	C304.857178,122.526634 304.408173,124.716278 304.552856,126.941963 
	C304.613892,127.880165 305.232727,128.782089 306.043610,130.234085 
z"/>
<path fill="#000000" opacity="1.000000" stroke="none" 
	d="
M299.918762,344.853851 
	C299.931091,340.040741 299.836548,335.704834 299.995667,331.378296 
	C300.078552,329.124054 299.953156,326.148163 303.158417,326.048767 
	C306.534668,325.944122 306.193451,328.869690 306.312775,331.180664 
	C306.370544,332.300079 306.459381,333.417908 306.560760,334.933624 
	C311.513916,332.534210 312.349640,324.208313 320.119446,326.321228 
	C319.403351,330.781830 316.079437,333.102386 313.736816,335.896698 
	C311.693207,338.334351 311.843597,339.853577 313.703979,342.272400 
	C316.159149,345.464508 319.711792,348.038391 320.655121,352.878235 
	C312.372742,354.723999 311.741119,345.951477 306.796173,343.534729 
	C305.851624,345.242828 306.461060,347.090302 306.330658,348.851135 
	C306.172302,350.989441 305.839447,353.051025 303.166351,353.062469 
	C300.460083,353.074005 300.162720,350.879303 299.975037,348.831818 
	C299.868896,347.674133 299.930878,346.501099 299.918762,344.853851 
z"/>
<path fill="#000000" opacity="1.000000" stroke="none" 
	d="
M223.222717,161.517853 
	C225.005035,161.160034 226.402420,160.613007 227.850143,160.295273 
	C230.772064,159.653976 233.572830,160.462616 234.523483,163.263474 
	C236.202072,168.209152 235.481918,173.434433 234.967133,178.546066 
	C234.858276,179.627090 233.779984,180.130280 232.704605,180.100204 
	C231.092316,180.055145 230.246765,178.901413 230.127914,177.526840 
	C229.885025,174.718048 229.957245,171.883545 229.807846,169.064484 
	C229.731750,167.628876 229.986176,165.713562 227.937057,165.531158 
	C225.689621,165.331116 225.308990,167.180054 225.213150,168.910095 
	C225.065979,171.566422 225.127289,174.236115 224.925385,176.886826 
	C224.806946,178.441696 224.138748,179.983154 222.315445,180.030502 
	C220.120392,180.087524 219.702301,178.404373 219.616379,176.600250 
	C219.482132,173.781815 219.421295,170.954483 219.132675,168.151184 
	C218.999298,166.855759 218.549683,165.342972 216.761810,165.511475 
	C215.175766,165.660934 214.549026,167.004593 214.454590,168.364105 
	C214.270370,171.016068 214.351135,173.685287 214.233963,176.343460 
	C214.147491,178.305603 213.606781,180.167648 211.161026,180.007584 
	C208.994751,179.865799 208.709976,178.059769 208.697754,176.315781 
	C208.669785,172.322388 208.686844,168.328583 208.701279,164.335007 
	C208.706299,162.945587 209.141113,160.916565 210.407562,161.175201 
	C214.589706,162.029221 218.811325,158.408157 223.222717,161.517853 
z"/>
<path fill="#000000" opacity="1.000000" stroke="none" 
	d="
M128.881683,331.062164 
	C130.541611,331.467896 131.952164,332.397675 133.064621,332.122467 
	C140.440826,330.297546 139.345718,335.352875 139.340439,339.580414 
	C139.335876,343.230499 139.460007,346.886871 139.289032,350.529297 
	C138.950806,357.734406 132.105164,362.039856 125.408302,359.421692 
	C124.081779,358.903107 122.791206,358.326019 123.080231,356.708252 
	C123.364769,355.115692 124.740242,354.761444 126.180763,354.964172 
	C129.702316,355.459778 132.809921,355.309326 133.714539,350.337036 
	C130.082321,350.860199 126.612000,352.030029 123.748024,349.232971 
	C122.018562,347.543945 120.990593,345.548523 120.714447,343.136627 
	C119.906456,336.079498 122.149750,332.568695 128.881683,331.062164 
M133.603806,339.821442 
	C133.151611,337.321350 131.722809,335.931458 129.122894,336.279602 
	C127.138329,336.545349 126.482460,338.139465 126.348595,339.899017 
	C126.138741,342.657288 126.225883,345.909790 129.577972,346.181702 
	C132.870407,346.448761 133.725739,343.519836 133.603806,339.821442 
z"/>
<path fill="#000000" opacity="1.000000" stroke="none" 
	d="
M271.681030,325.693909 
	C273.078033,325.974731 274.067596,326.144684 274.985352,326.500061 
	C276.533478,327.099518 277.572693,328.199249 277.019836,329.954651 
	C276.501526,331.600342 275.012177,331.430725 273.670868,331.261841 
	C273.016144,331.179413 272.377136,330.969788 271.732086,330.813416 
	C267.885559,329.881409 264.735504,331.101135 262.653595,334.341949 
	C260.513519,337.673279 260.529114,341.373108 262.570160,344.734192 
	C264.585480,348.052979 267.808258,349.147308 271.627502,348.462097 
	C273.605103,348.107300 276.364166,346.459442 276.937164,349.686493 
	C277.493744,352.821228 274.374725,353.068451 272.148346,353.473358 
	C266.552582,354.491089 261.426971,353.439117 257.811157,348.776245 
	C254.035797,343.907593 253.589005,338.324951 256.132111,332.775909 
	C258.547668,327.505066 263.129639,325.510681 268.749786,325.607086 
	C269.580383,325.621338 270.410797,325.646362 271.681030,325.693909 
z"/>
<path fill="#000000" opacity="1.000000" stroke="none" 
	d="
M298.324280,156.839523 
	C298.388245,158.382339 298.448639,159.525085 298.500427,160.505280 
	C300.126984,161.522781 301.294220,160.473282 302.534607,160.263321 
	C305.210693,159.810379 307.888794,160.224411 309.109558,162.670166 
	C311.560822,167.581268 311.521820,172.928375 310.509674,178.234924 
	C310.277924,179.450043 309.270569,180.196396 307.904541,180.096771 
	C306.320343,179.981277 305.424957,178.904129 305.290283,177.521835 
	C305.016907,174.715408 305.037598,171.881485 304.885223,169.061707 
	C304.792542,167.346725 304.572418,165.590454 302.347809,165.404526 
	C300.277435,165.231461 299.446503,166.734253 298.867126,168.371872 
	C297.895477,171.118347 298.545563,173.989487 298.301758,176.794693 
	C298.164215,178.377594 297.856110,179.908997 295.933502,180.044342 
	C293.848877,180.191086 292.833069,178.783096 292.809021,176.943726 
	C292.715424,169.788116 292.722992,162.630173 292.793610,155.474091 
	C292.811707,153.641190 293.724152,152.089218 295.805878,152.279831 
	C298.271179,152.505539 298.282806,154.559601 298.324280,156.839523 
z"/>
<path fill="#000000" opacity="1.000000" stroke="none" 
	d="
M368.551392,336.959656 
	C370.284760,337.601685 371.390900,338.388763 370.924011,340.020294 
	C370.482086,341.564514 368.991028,342.007507 367.720245,341.863434 
	C362.296631,341.248566 360.610138,343.799927 361.191437,348.831329 
	C361.433868,350.929565 360.814301,353.021393 358.148682,353.083618 
	C355.466187,353.146271 354.916077,351.055908 354.893341,348.956421 
	C354.824860,342.634552 354.832123,336.310699 354.910492,329.988892 
	C354.944885,327.215393 356.416718,325.693542 359.303497,325.721832 
	C362.464203,325.752808 365.626526,325.708252 368.785492,325.794342 
	C370.419708,325.838867 371.861969,326.535675 371.830627,328.383789 
	C371.803680,329.974060 370.380554,330.530518 369.021606,330.733521 
	C367.546692,330.953918 366.042786,330.999695 364.549072,331.069580 
	C362.656891,331.158112 361.335999,331.764130 361.353699,333.986145 
	C361.371826,336.257385 362.771149,336.736420 364.643646,336.753235 
	C365.807648,336.763702 366.971069,336.834106 368.551392,336.959656 
z"/>
<path fill="#000000" opacity="1.000000" stroke="none" 
	d="
M162.653381,332.098816 
	C162.666733,329.952850 162.675385,328.290741 162.696442,326.628815 
	C162.720093,324.762482 163.387451,323.155457 165.451004,323.203888 
	C167.452667,323.250885 168.201675,324.869843 168.229630,326.705719 
	C168.279373,329.970947 168.243622,333.237457 168.243622,337.298462 
	C172.338455,335.131805 174.273621,329.748169 179.369308,332.404694 
	C179.384033,335.117035 177.307098,336.321350 175.781128,337.643616 
	C172.912369,340.129333 173.268341,342.175110 175.713654,344.684814 
	C177.268753,346.280914 179.425369,347.553314 179.862366,350.401276 
	C174.445923,353.402588 172.782959,347.197632 169.490616,345.946991 
	C168.214401,346.523743 168.409012,347.467560 168.248306,348.237213 
	C167.858154,350.105774 166.883972,351.342926 164.832520,350.991974 
	C162.959854,350.671570 162.714645,349.104523 162.704391,347.542786 
	C162.671661,342.556183 162.668655,337.569427 162.653381,332.098816 
z"/>
<path fill="#000000" opacity="1.000000" stroke="none" 
	d="
M198.936218,130.628693 
	C195.282623,136.687714 189.619263,138.447144 184.492737,135.430695 
	C180.055344,132.819733 178.376480,126.315971 180.845734,121.302582 
	C183.171524,116.580406 189.039429,114.676903 194.140274,116.989914 
	C198.594894,119.009895 200.278046,123.536972 198.936218,130.628693 
M192.341400,130.816040 
	C194.257126,128.891769 193.810059,126.493629 193.523514,124.211395 
	C193.323044,122.614769 192.189087,121.577667 190.642471,121.070053 
	C189.213287,120.600967 187.919006,120.973129 187.049118,122.106110 
	C185.289871,124.397415 184.899796,126.918808 186.263107,129.587128 
	C187.512238,132.031967 189.437347,132.245422 192.341400,130.816040 
z"/>
<path fill="#000000" opacity="1.000000" stroke="none" 
	d="
M318.574524,161.288391 
	C326.783905,158.720825 332.625305,161.908630 333.247223,169.017258 
	C333.649567,173.615921 332.702240,177.832779 327.987732,179.813965 
	C323.714691,181.609650 319.492096,181.341370 316.089966,177.678452 
	C313.137421,174.499557 312.753204,168.587357 315.105316,164.610306 
	C315.885101,163.291855 316.886108,162.221832 318.574524,161.288391 
M321.576050,165.472778 
	C319.033905,167.563599 318.812408,170.298233 319.796631,173.111969 
	C320.877502,176.202103 324.561005,176.844772 326.487946,174.368744 
	C328.042877,172.370712 328.060638,169.963715 327.282257,167.755997 
	C326.492798,165.516907 324.738464,164.347916 321.576050,165.472778 
z"/>
<path fill="#000000" opacity="1.000000" stroke="none" 
	d="
M160.442322,160.293152 
	C163.457047,160.926208 165.315063,162.423325 166.519760,164.820496 
	C169.088821,169.932434 167.738449,172.275726 162.087585,172.381042 
	C159.803772,172.423615 157.518524,172.388046 154.754486,172.388046 
	C156.169601,176.476166 158.539062,176.641449 161.349854,176.027969 
	C162.861633,175.698029 164.611664,175.556030 164.981491,177.538422 
	C165.338150,179.450195 163.757629,179.958099 162.206528,180.359329 
	C157.797867,181.499710 153.806839,180.805023 150.882080,177.193924 
	C148.001373,173.637207 147.848801,169.478683 149.748245,165.419342 
	C151.768723,161.101288 155.448563,159.621216 160.442322,160.293152 
M155.183792,168.110703 
	C157.362686,168.783722 159.508377,169.166321 161.523392,167.585190 
	C158.877243,163.305649 157.580872,163.337402 155.183792,168.110703 
z"/>
<path fill="#000000" opacity="1.000000" stroke="none" 
	d="
M255.478394,160.881546 
	C257.744873,162.006821 259.393951,160.871704 261.130493,160.453796 
	C265.386963,159.429443 268.192780,161.163101 269.341492,165.384079 
	C270.273010,168.806931 270.226501,172.295120 270.065155,175.777878 
	C269.971924,177.789993 269.735138,180.059906 266.996338,180.049530 
	C264.474823,180.039978 264.391327,177.820801 264.227722,176.047043 
	C263.999298,173.570587 264.055481,171.069275 263.918915,168.582489 
	C263.833679,167.030243 263.514496,165.495163 261.567047,165.318817 
	C259.843201,165.162735 258.823669,166.190613 258.131592,167.672241 
	C256.872070,170.368561 257.495148,173.234741 257.326996,176.028000 
	C257.215057,177.887756 257.271759,180.002594 254.726456,180.052673 
	C252.307846,180.100220 251.836365,178.118637 251.795990,176.211182 
	C251.711655,172.226318 251.726120,168.237793 251.786179,164.252075 
	C251.817596,162.167145 252.692459,160.721558 255.478394,160.881546 
z"/>
<path fill="#000000" opacity="1.000000" stroke="none" 
	d="
M353.080444,178.435638 
	C348.809937,180.038376 344.565735,180.648712 340.305603,180.436890 
	C338.170532,180.330734 336.866669,178.450012 336.338867,176.405136 
	C335.241058,172.151764 335.671387,167.811401 335.959076,163.508835 
	C336.070770,161.837738 337.167267,160.776825 339.007385,160.964417 
	C340.663727,161.133270 341.193817,162.357254 341.245270,163.780426 
	C341.341461,166.439423 341.302246,169.103027 341.372803,171.763306 
	C341.419067,173.507935 341.757263,175.272964 343.857544,175.505341 
	C346.142944,175.758179 347.207397,174.063171 347.482666,172.171829 
	C347.815765,169.883011 347.660858,167.526947 347.800354,165.204987 
	C347.922180,163.177246 348.046600,160.899475 350.844299,160.965942 
	C353.460510,161.028091 353.328278,163.238480 353.335724,165.045364 
	C353.353516,169.367996 353.265625,173.691055 353.080444,178.435638 
z"/>
<path fill="#000000" opacity="1.000000" stroke="none" 
	d="
M226.996918,327.405396 
	C227.852371,325.745880 229.516739,324.639160 230.312317,325.589508 
	C232.888229,328.666565 235.025253,331.980621 238.709396,334.108978 
	C239.742416,334.705780 237.833038,336.288727 236.526779,336.554810 
	C233.669403,337.136841 232.887329,338.949493 232.954208,341.614319 
	C233.019455,344.213959 232.940842,346.684448 236.425079,347.138489 
	C237.649490,347.298004 238.606171,348.089661 238.412598,349.527771 
	C238.225479,350.917908 237.042892,351.259033 235.913620,351.611267 
	C231.129105,353.103485 227.113464,350.185913 226.802200,344.783478 
	C226.580002,340.926727 227.534958,336.757080 222.765808,334.632477 
	C224.402130,332.104736 227.494827,330.964233 226.996918,327.405396 
z"/>
<path fill="#000000" opacity="1.000000" stroke="none" 
	d="
M340.958740,124.819405 
	C340.449524,129.607422 342.320251,131.482956 346.676453,131.045456 
	C347.797638,130.932846 348.995880,131.197815 350.107666,131.486191 
	C351.331512,131.803650 352.134583,132.648102 352.014404,134.027237 
	C351.893951,135.409500 350.937134,136.173248 349.693329,136.194275 
	C345.543091,136.264496 341.384491,136.311935 337.241089,136.115402 
	C335.164551,136.016907 334.683380,134.255569 334.679901,132.464325 
	C334.666901,125.812714 334.678040,119.161034 334.692291,112.509399 
	C334.696167,110.693947 335.187103,109.090988 337.304565,108.924477 
	C339.677948,108.737839 340.574463,110.419731 340.678192,112.389427 
	C340.887817,116.370125 340.876648,120.362450 340.958740,124.819405 
z"/>
<path fill="#000000" opacity="1.000000" stroke="none" 
	d="
M146.106232,173.337921 
	C146.524323,176.811600 145.107437,178.946564 142.341599,179.994614 
	C138.785477,181.342148 135.176727,181.317398 131.753632,179.415359 
	C130.791672,178.880859 130.377899,177.912384 130.615417,176.861725 
	C130.964706,175.316650 132.239761,175.543991 133.420120,175.550812 
	C135.605026,175.563446 137.972397,176.740097 140.028503,174.780243 
	C138.969177,172.639877 136.954163,172.782410 135.309402,172.212631 
	C132.310532,171.173752 129.669144,169.617004 129.900345,165.979996 
	C130.141968,162.178696 132.927002,160.775055 136.295715,160.100494 
	C138.524078,159.654297 140.591049,160.205811 142.668579,160.796631 
	C144.070374,161.195251 145.177902,162.067001 144.784592,163.647690 
	C144.371628,165.307434 142.877777,165.264755 141.512817,165.081970 
	C139.532715,164.816864 137.281357,163.396210 135.951950,166.657562 
	C139.385742,168.712357 144.491257,168.111755 146.106232,173.337921 
z"/>
<path fill="#000000" opacity="1.000000" stroke="none" 
	d="
M240.488953,117.432716 
	C242.257248,119.619659 246.403625,120.741730 244.444580,123.772820 
	C242.270966,127.135902 238.891190,131.154892 234.990875,131.123367 
	C230.195404,131.084579 234.925888,127.604462 234.438354,125.268242 
	C230.301239,125.268242 226.181503,125.283173 222.061966,125.261650 
	C220.136566,125.251595 218.060806,124.950928 218.056747,122.567642 
	C218.052628,120.148811 220.257187,119.913689 222.090393,119.868874 
	C226.062607,119.771774 230.038864,119.838943 233.692642,119.838943 
	C234.963333,118.660851 234.047852,118.073235 233.661270,117.465218 
	C232.996140,116.419098 232.451584,115.326233 233.563431,114.352539 
	C234.760345,113.304329 236.059052,113.722702 237.187012,114.599838 
	C238.233994,115.413979 239.211502,116.317467 240.488953,117.432716 
z"/>
<path fill="#000000" opacity="1.000000" stroke="none" 
	d="
M254.822662,391.862183 
	C256.787079,391.833069 258.424866,391.860046 258.414642,393.995941 
	C258.406738,395.652039 257.054138,396.067505 255.705490,396.422150 
	C251.067307,397.641815 246.979721,396.620819 244.113998,392.787872 
	C241.132706,388.800323 241.097748,384.224487 243.897324,380.195984 
	C246.481186,376.477875 250.483047,375.312531 254.950928,376.344666 
	C256.511932,376.705292 258.602875,376.847595 258.427124,379.133820 
	C258.244965,381.503326 256.214050,381.237701 254.586227,381.120300 
	C250.876968,380.852783 248.337418,381.941772 248.215363,386.157562 
	C248.091431,390.439362 250.264130,392.233917 254.822662,391.862183 
z"/>
<path fill="#000000" opacity="1.000000" stroke="none" 
	d="
M184.638733,179.769608 
	C175.729355,181.997101 169.944016,178.554916 169.320114,171.077942 
	C168.713730,163.811142 175.392593,158.370819 182.451797,160.376938 
	C183.895508,160.787231 185.692474,161.067429 185.608978,162.964279 
	C185.506561,165.291595 183.557251,165.047470 181.866898,165.112488 
	C176.596924,165.315155 174.777649,167.143951 175.366577,171.459290 
	C175.901581,175.379486 178.545319,176.021774 181.894669,175.918427 
	C184.217545,175.846741 187.214569,175.577667 184.638733,179.769608 
z"/>
<path fill="#000000" opacity="1.000000" stroke="none" 
	d="
M335.615051,335.545532 
	C333.114563,341.034271 330.791687,346.190033 328.425751,351.325989 
	C327.483063,353.372437 326.152435,355.602936 323.614716,354.415039 
	C320.818451,353.106140 322.943390,350.949890 323.659210,349.311035 
	C326.521332,342.758209 329.477814,336.245697 332.473145,329.752319 
	C333.434296,327.668732 334.538391,324.763916 337.416656,326.310791 
	C340.115082,327.761047 337.760803,330.104004 337.160309,332.000275 
	C336.810822,333.103912 336.244324,334.138794 335.615051,335.545532 
z"/>
<path fill="#000000" opacity="1.000000" stroke="none" 
	d="
M233.013962,374.090454 
	C233.818924,372.592529 234.337250,371.338074 235.145599,370.312103 
	C236.128464,369.064636 237.542969,368.297333 239.068512,369.299133 
	C240.529999,370.258789 239.858139,371.669739 239.313568,372.878632 
	C236.043259,380.138611 232.774826,387.399811 229.427979,394.624573 
	C228.573410,396.469269 227.209473,398.571167 224.945084,397.378784 
	C222.487869,396.084900 224.140366,393.852234 224.892944,392.134735 
	C227.489197,386.209442 230.193008,380.331299 233.013962,374.090454 
z"/>
<path fill="#000000" opacity="1.000000" stroke="none" 
	d="
M155.576324,333.484924 
	C153.091660,338.971161 150.782166,344.120636 148.454391,349.261810 
	C147.526871,351.310394 146.255096,353.570770 143.720001,352.505524 
	C140.917664,351.328003 142.828766,349.106262 143.562531,347.434509 
	C146.364288,341.051331 149.235718,334.698029 152.160583,328.370270 
	C152.777222,327.036285 153.609375,325.754395 154.564651,324.639038 
	C155.377441,323.690002 156.639114,323.528931 157.759674,324.176239 
	C159.028702,324.909271 158.877075,326.098724 158.388092,327.236816 
	C157.536469,329.218933 156.628510,331.176788 155.576324,333.484924 
z"/>
<path fill="#000000" opacity="1.000000" stroke="none" 
	d="
M293.415588,335.362122 
	C290.861755,341.002838 288.499146,346.319580 286.037750,351.590210 
	C285.157135,353.475861 283.720978,355.382416 281.458740,354.398651 
	C278.562592,353.139221 280.620422,350.949585 281.317230,349.341644 
	C284.092743,342.937103 287.008636,336.592499 289.937897,330.255951 
	C290.963867,328.036591 292.042114,324.771240 295.087402,326.239044 
	C298.157257,327.718781 295.222809,330.248871 294.763580,332.284332 
	C294.548553,333.237579 293.977570,334.110565 293.415588,335.362122 
z"/>
<path fill="#000000" opacity="1.000000" stroke="none" 
	d="
M294.763123,397.691589 
	C291.843048,396.614807 292.747101,394.773346 293.480988,393.117676 
	C296.572693,386.142365 299.684784,379.175018 302.902374,372.257294 
	C303.810150,370.305603 305.137878,367.928741 307.726288,369.273376 
	C310.384155,370.654053 308.291046,372.787170 307.581116,374.428131 
	C304.815430,380.820679 301.924011,387.159119 299.047668,393.503296 
	C298.223602,395.320892 297.388672,397.179932 294.763123,397.691589 
z"/>
<path fill="#000000" opacity="1.000000" stroke="none" 
	d="
M214.594086,339.529785 
	C212.848862,343.331726 211.326920,346.822662 209.640198,350.232056 
	C208.774887,351.981171 207.286438,353.322052 205.239624,352.325592 
	C203.014465,351.242371 204.356186,349.435974 204.979782,348.035095 
	C208.076035,341.079651 211.247818,334.157532 214.430115,327.240784 
	C215.278046,325.397766 216.415009,323.223267 218.765411,324.152435 
	C221.497192,325.232391 219.907181,327.512329 219.208664,329.213074 
	C217.825928,332.579681 216.246979,335.865662 214.594086,339.529785 
z"/>
<path fill="#000000" opacity="1.000000" stroke="none" 
	d="
M194.388519,179.330917 
	C193.024887,181.172348 191.628235,182.667343 189.668762,181.213882 
	C187.813950,179.838043 189.332687,178.145218 189.955185,176.741730 
	C192.985184,169.910263 196.080475,163.107071 199.228821,156.329239 
	C200.150879,154.344223 201.474747,151.948196 204.013779,153.328125 
	C206.507431,154.683411 204.522430,156.913147 203.798523,158.568741 
	C200.804718,165.415558 197.657303,172.195190 194.388519,179.330917 
z"/>
<path fill="#000000" opacity="1.000000" stroke="none" 
	d="
M273.902191,176.140244 
	C276.820923,169.722488 279.578857,163.657761 282.360413,157.603897 
	C282.845367,156.548370 283.311005,155.449997 283.997284,154.529205 
	C284.940613,153.263474 286.238739,152.347107 287.860382,153.284805 
	C289.369080,154.157211 288.936951,155.512848 288.355194,156.794861 
	C285.052124,164.074127 281.784668,171.369858 278.425903,178.623322 
	C277.562439,180.487976 276.193024,182.496841 273.880768,181.329224 
	C271.583832,180.169357 273.250153,178.149246 273.902191,176.140244 
z"/>
<path fill="#000000" opacity="1.000000" stroke="none" 
	d="
M203.727631,132.668671 
	C203.689178,125.729012 203.675049,119.254402 203.679688,112.779808 
	C203.681152,110.729866 203.727890,108.364204 206.389771,108.259132 
	C209.519394,108.135612 209.361816,110.771896 209.372528,112.929993 
	C209.404678,119.404457 209.397980,125.879318 209.362885,132.353775 
	C209.353683,134.051483 209.212036,135.836945 206.987076,136.087830 
	C204.886322,136.324707 204.040085,134.989731 203.727631,132.668671 
z"/>
<path fill="#000000" opacity="1.000000" stroke="none" 
	d="
M369.127380,165.206543 
	C364.037048,166.855576 363.476105,170.701447 363.359192,174.900436 
	C363.303436,176.902771 364.111908,179.830017 360.941528,180.008972 
	C357.533356,180.201370 357.816620,177.228714 357.750641,174.952652 
	C357.659119,171.795807 357.697510,168.633743 357.750061,165.475067 
	C357.766418,164.492813 357.838287,163.447906 358.187408,162.549255 
	C358.748871,161.104080 370.756927,160.030960 371.491119,161.372330 
	C372.649384,163.488434 371.016846,164.320847 369.127380,165.206543 
z"/>
<path fill="#000000" opacity="1.000000" stroke="none" 
	d="
M341.603882,329.693604 
	C343.446106,325.540283 346.609833,324.992096 350.044373,326.090729 
	C352.870392,326.994720 354.103760,329.541443 353.930206,332.380676 
	C353.751373,335.306427 351.874939,337.217041 349.066223,338.007507 
	C344.536102,339.282440 341.062683,335.607147 341.603882,329.693604 
z"/>
<path fill="#000000" opacity="1.000000" stroke="none" 
	d="
M254.577667,334.256958 
	C252.426453,337.906555 249.595596,339.171783 246.055115,337.528442 
	C242.717148,335.979034 241.745987,332.980499 242.851776,329.635468 
	C244.037064,326.049988 247.071060,324.948792 250.415756,325.910370 
	C254.259125,327.015350 256.023285,329.755371 254.577667,334.256958 
z"/>
<path fill="#000000" opacity="1.000000" stroke="none" 
	d="
M240.838440,177.542175 
	C240.723434,173.090637 240.670105,169.094788 240.681168,165.099136 
	C240.686966,163.004501 240.914886,160.862747 243.716614,160.895706 
	C246.314041,160.926270 246.344177,162.997528 246.359207,164.864975 
	C246.390015,168.694626 246.377167,172.525009 246.336411,176.354614 
	C246.320282,177.869858 246.261993,179.531952 244.440796,180.016251 
	C242.748642,180.466248 241.569733,179.594589 240.838440,177.542175 
z"/>
<path fill="#000000" opacity="1.000000" stroke="none" 
	d="
M289.918091,140.109482 
	C287.727814,137.440872 288.405701,131.706665 290.757019,130.145493 
	C292.079559,129.267410 293.573181,129.186417 294.939514,130.015442 
	C296.470856,130.944580 295.877808,132.342194 295.329407,133.503906 
	C294.124786,136.055801 293.984436,139.455917 289.918091,140.109482 
z"/>
<path fill="#000000" opacity="1.000000" stroke="none" 
	d="
M329.000854,130.094009 
	C330.303650,133.757843 328.272186,136.328262 326.660339,138.945038 
	C325.922516,140.142929 324.558502,140.601929 323.153778,139.827072 
	C321.950256,139.163177 321.912170,138.043793 322.025848,136.798447 
	C322.509918,131.497314 324.253113,129.658081 329.000854,130.094009 
z"/>
<path fill="#000000" opacity="1.000000" stroke="none" 
	d="
M244.761917,156.860962 
	C242.222519,157.205643 240.659317,156.432251 241.120804,154.040771 
	C241.437592,152.399109 242.974380,151.573959 244.557129,152.338104 
	C246.687103,153.366425 246.721466,155.000534 244.761917,156.860962 
z"/>
</svg>
