<svg xmlns="http://www.w3.org/2000/svg" xmlns:xlink="http://www.w3.org/1999/xlink" xmlns:inkscape="http://www.inkscape.org/namespaces/inkscape" version="1.1" width="304.0819" height="297.3031" viewBox="0 0 304.0819 297.3031">
<defs>
<clipPath id="clip_0">
<path transform="matrix(1,0,0,-1,0,297.3031)" d="M36 36H261.3031V261.3031H36Z"/>
</clipPath>
<clipPath id="clip_1">
<path transform="matrix(1,0,0,-1,0,297.3031)" d="M48.87026 48.87025H248.43286V248.43286H48.87026Z"/>
</clipPath>
<clipPath id="clip_2">
<path transform="matrix(1,0,0,-1,0,297.3031)" d="M129.1699 98.19762H269.216V242.19762H129.1699Z"/>
</clipPath>
<path id="font_3_3233" d="M.1269989 .38476563C.10398865 .38476563 .083999637 .38676454 .06098938 .39279176L.066986087 .3577423C.08999634 .36276246 .102996829 .36375428 .1269989 .36375428H.34599305C.34599305 .32167054 .36698915 .2926178 .3959961 .2926178 .43699647 .2926178 .46699525 .3407135 .46699525 .4078369 .46699525 .41888429 .46699525 .42489625 .46499635 .43894959H.82398989C.81700137 .39279176 .8129883 .37475587 .80400088 .33770753L.8149872 .33169557C.8549957 .3577423 .8679962 .36775209 .91999819 .40985108 .96798709 .41386415 .97299197 .41586305 .97299197 .42590333 .97299197 .43092347 .9700012 .43493653 .96299746 .44195558 .9229889 .47506715 .9109955 .48513795 .86898806 .5181427 .84599307 .49317933 .83898928 .48614503 .81599429 .45996095H.46199037C.45799256 .47607423 .45799256 .47607423 .44198609 .5131836L.43199159 .5121765C.43199159 .5071869 .43199159 .502182 .43199159 .5011749 .43199159 .45996095 .4079895 .41687013 .37599183 .3998108 .36299134 .39279176 .36299134 .39279176 .35899354 .3887787 .31698609 .42289735 .31498719 .42390443 .2829895 .44895936 .2579956 .42189027 .25 .41285707 .22499085 .38476563H.1269989M.69599917 .7080078V.7844391C.7279968 .7954407 .73799136 .8014221 .73799136 .8114166 .73799136 .8224182 .7200012 .82640078 .6559906 .83140566 .6399994 .83340457 .6159973 .83540347 .58399966 .83940127 .58898928 .806427 .58999636 .7914429 .58999636 .75845339V.7080078H.45999146C.43199159 .7080078 .41600038 .710022 .3889923 .7160797L.394989 .681015C.4169922 .68499758 .43499757 .68699648 .46099855 .68699648H.58999636V.56591799H.4889984C.45999146 .56591799 .44299317 .56791689 .4169922 .572937L.42399598 .53897097C.44699098 .54293826 .46499635 .5449219 .48799134 .5449219H.9359894C.94099429 .5449219 .94499209 .5479126 .94499209 .5509186 .94499209 .5539093 .94299319 .5559082 .9399872 .55992129 .897995 .5950165 .8849945 .60606387 .84199526 .6391144 .81399539 .60705569 .8049927 .5980377 .7789917 .56591799H.69599917V.68699648H.9529877C.95799258 .68699648 .96299746 .69000247 .96299746 .69400027 .96299746 .69599917 .96099856 .69999697 .95599368 .70500186 .91400149 .7403412 .901001 .7514496 .85598757 .7844391 .8279877 .75245669 .81900027 .74235537 .79100039 .7080078H.69599917M.06498718 .7463989C.08699036 .7504425 .09899902 .7514496 .12098694 .7514496H.3869934C.3939972 .7514496 .397995 .7534485 .397995 .7574463 .397995 .75946047 .3959961 .7624512 .3919983 .76745608 .35198976 .8004303 .33999635 .8104248 .2979889 .84339907 .269989 .8124237 .2619934 .803421 .23399353 .77246096H.12098694C.100997928 .77246096 .07899475 .77545168 .05899048 .7804413L.06498718 .7463989M.042999269 .61408999C.066986087 .6191101 .07798767 .6201172 .10598755 .6201172H.40299989C.4099884 .6201172 .4149933 .6231079 .4149933 .6271057 .4149933 .6291046 .41299439 .6321106 .40899659 .6371155 .36898805 .67103579 .35699464 .68200686 .31498719 .71406558 .28599549 .6830139 .2769928 .67303469 .24899292 .6411133H.10598755C.07998657 .6411133 .05999756 .6431122 .036987306 .6490936L.042999269 .61408999M.067993167 .4871521C.09199524 .49118043 .10499573 .4921875 .1269989 .4921875H.37298585C.3789978 .4921875 .3829956 .49517823 .3829956 .49917604 .3829956 .502182 .3809967 .5041809 .3769989 .5091858 .33898927 .5419464 .32699586 .5509186 .28599549 .5819702 .26098634 .5529175 .2519989 .54393008 .22599793 .5131836H.125C.10398865 .5131836 .08799744 .51516726 .06298828 .52111819L.067993167 .4871521M.1659851-.009292603H.25099183V-.03135681C.2519989-.043380739 .25698854-.046401979 .2769928-.046401979 .30799867-.046401979 .33499146-.043380739 .34399415-.038375856 .34999085-.035369874 .35299684-.030349732 .35299684-.019317627 .34999085 .057678224 .34999085 .057678224 .34899903 .20254517 .37399293 .21453858 .3829956 .22154236 .3829956 .23052979 .3829956 .23452759 .37998963 .23852539 .37399293 .24453736 .34199525 .272583 .33099366 .28160096 .29599 .3086548 .27198792 .28259278 .2649994 .2745819 .24299622 .24853516H.17199707C.1269989 .275589 .11199951 .28359986 .06399536 .3086548 .067993167 .24952698 .068984989 .21054077 .068984989 .11262512 .068984989 .03968811 .067993167 .012710571 .06498718-.058425905 .06498718-.07548523 .070999149-.07849121 .101989749-.07849121 .15499878-.07849121 .16499329-.07447815 .1659851-.05342102V-.009292603M.1659851 .22753906H.25099183V.01171875H.1659851V.22753906M.67099 .11338806V.013305664C.6729889-.045700075 .69400027-.0546875 .82099917-.0546875 .8849945-.0546875 .9249878-.050689699 .94400027-.04269409 .96699526-.031692506 .98098757-.011688232 .98098757 .012298584 .98098757 .033309938 .973999 .043304445 .95098879 .05432129 .93699648 .060333253 .9319916 .065338138 .9319916 .07635498V.0793457L.93899539 .24752808 .92900088 .24853516C.9059906 .16044617 .8819885 .08135986 .8679962 .05532837 .8619995 .043304445 .85398867 .040298463 .82299807 .040298463 .8129883 .040298463 .7809906 .043304445 .7779999 .044311525 .772995 .046310426 .7719879 .048309328 .7719879 .059326173V.33770753C.79299929 .34773255 .7999878 .35273744 .7999878 .3587494 .7999878 .37075807 .7939911 .37176515 .66600039 .38375855 .66999819 .35073854 .67099 .33970643 .67099 .29362489V.11338806M.32199098-.08465576C.36799623-.06767273 .3829956-.061691286 .40499879-.050689699 .48199464-.013702393 .526001 .026306153 .55400088 .085357669 .58299258 .14343262 .59399417 .20550537 .6009979 .33270265 .6259918 .34172059 .6359863 .34773255 .6359863 .35473634 .6359863 .3577423 .6329956 .36175538 .6289978 .36375428 .61898806 .36875917 .61499026 .36975099 .49398805 .38275147 .49598695 .36375428 .49699403 .3557434 .49699403 .33970643 .49699403 .30264283 .49398805 .25854493 .48999024 .21852112 .47898866 .119400028 .45599366 .05732727 .41099549 .00730896 .3889923-.018692017 .36898805-.035690309 .31599427-.07467651L.32199098-.08465576Z"/>
<clipPath id="clip_4">
<path transform="matrix(1,0,0,-1,0,297.3031)" d="M47.02991 143.1976H152.12282V248.2905H47.02991Z"/>
</clipPath>
<clipPath id="clip_5">
<path transform="matrix(1,0,0,-1,0,297.3031)" d="M29.55332 112.119H169.59941V256.11903H29.55332Z"/>
</clipPath>
<path id="font_3_1533" d="M.3600006 .2939453C.33399964 .2939453 .31599427 .2959442 .28799439 .302948L.29499818 .266922C.31698609 .27093507 .33599855 .27293397 .3600006 .27293397H.5289917C.5219879 .2298584 .5159912 .20481873 .5049896 .17578125H.32199098C.29699708 .17578125 .2749939 .17877198 .24899292 .18478394L.25498963 .14875794C.27598573 .152771 .2979889 .1547699 .32199098 .1547699H.49499513C.47698976 .12072754 .45999146 .095687869 .43399049 .06864929 .37998963 .011566162 .31799317-.025482178 .20698548-.06854248L.20999146-.079559329C.32099916-.060531618 .3789978-.043502809 .43499757-.015472412 .5109863 .024597168 .56900027 .08267212 .60198977 .1547699H.60899356C.6289978 .113708499 .6399994 .09768677 .6629944 .07064819 .71499636 .0075683596 .7709961-.02947998 .8619995-.059524537 .8849945-.0675354 .897995-.07054138 .9029999-.07054138 .9089966-.07054138 .9119873-.0675354 .91400149-.056518556 .9229889-.006454468 .94299319 .023590088 .97898867 .040618898V.051635744C.87098696 .054626466 .81199648 .06263733 .7529907 .08166504 .69599917 .09970093 .66600039 .11772156 .6279907 .1547699H.96199038C.96699526 .1547699 .9700012 .1567688 .9700012 .15977478 .9700012 .16177368 .96798709 .16477967 .96398928 .16877747 .9189911 .20683289 .9049988 .21784973 .8600006 .24989319 .83099368 .21984864 .82199099 .20982361 .79100039 .17578125H.61099246C.62098696 .20481873 .6269989 .23187256 .6339874 .27293397H.923996C.93299868 .27293397 .93699648 .27493287 .93699648 .27893067 .93699648 .28094483 .93499758 .28393556 .93099978 .28793336 .8889923 .3219757 .8819885 .3269806 .83399966 .3630371 .875 .365036 .8819885 .3700409 .8819885 .39108277 .8799896 .4560547 .8799896 .46704103 .8799896 .50201418 .8799896 .51101687 .8799896 .526001 .8799896 .5449829 .9059906 .5579834 .9119873 .562973 .9119873 .5709839 .9119873 .5749817 .9089966 .5789795 .901001 .5849762 .86698916 .60998538 .85598757 .6179962 .82099917 .64201357 .7979889 .61698916 .7899933 .60899356 .7669983 .5839844H.42599488C.3789978 .60899356 .3639984 .6159973 .31399537 .63801577 .31599427 .5819702 .31698609 .5449829 .31698609 .50201418 .31698609 .4560547 .31599427 .43006898 .31399537 .368042 .31399537 .34901429 .31900025 .3460083 .35198976 .3460083 .4079895 .3460083 .41999818 .35002137 .41999818 .37205506V.39207459H.5379944C.5359955 .3420105 .5349884 .32598878 .5309906 .2939453H.3600006M.5389862 .562973C.5399933 .5180054 .5399933 .51400759 .5399933 .50901797 .5399933 .4580536 .5399933 .4530487 .5379944 .41308595H.41999818V.562973H.5389862M.776001 .562973V.41308595H.6439972C.644989 .447052 .6459961 .49702455 .6469879 .562973H.776001M.6359863 .2939453C.6399994 .3239746 .6409912 .34300233 .6429901 .39207459H.776001V.38006593C.776001 .365036 .7809906 .36203004 .80599978 .36203004 .81399539 .36203004 .82099917 .36203004 .83299258 .3630371 .80799868 .33700563 .7999878 .32798768 .769989 .2939453H.6359863M.5299988 .7270508C.5299988 .73706057 .5299988 .74609377 .5299988 .75009158 .5299988 .7601166 .5299988 .7711334 .5309906 .7881775 .5609894 .79618838 .56999209 .80119326 .56999209 .81022647 .56999209 .8232422 .5609894 .82525637 .42399598 .8372803 .42599488 .8032074 .4269867 .77915957 .4269867 .74609377 .4269867 .7420807 .4269867 .73506167 .4269867 .7270508H.34599305C.32598878 .7270508 .30999757 .7290497 .2849884 .73405459L.29100038 .7000427C.31098939 .7040405 .32899476 .7060547 .34599305 .7060547H.4269867C.4269867 .68704226 .42599488 .6760254 .4249878 .63801577 .4249878 .6210022 .42799378 .6190033 .46499635 .6190033 .5209961 .6190033 .5309906 .6230011 .5309906 .64401248 .5309906 .6850281 .5309906 .6850281 .5309906 .7060547H.6529999C.6519928 .6810303 .6519928 .67503359 .651001 .64201357 .651001 .6260071 .6559906 .6230011 .6839905 .6230011 .7449951 .6230011 .7579956 .628006 .7579956 .65101626 .7569885 .68003848 .7569885 .68704226 .7569885 .7060547H.95999148C.96798709 .7060547 .97299197 .7090454 .97299197 .7130432 .97299197 .7150421 .97099307 .7190399 .96598818 .723053 .9259949 .7581177 .9129944 .76812747 .86898806 .80119326 .84199526 .7701416 .83399966 .7601166 .8069916 .7270508H.7569885V.7901764C.7879944 .79919436 .79599 .8032074 .79599 .81222537 .79599 .82424929 .79299929 .82525637 .6499939 .8382721 .6529999 .80921939 .6529999 .79618838 .6529999 .76112368 .6529999 .74508669 .6529999 .73405459 .6529999 .7270508H.5299988M.07998657 .8132324C.125 .76612856 .14498902 .73306277 .16999817 .6670227 .18099976 .63900759 .18798828 .6309967 .20298767 .6309967 .23399353 .6309967 .2649994 .6720276 .2649994 .7130432 .2649994 .76112368 .21699524 .7901764 .085998538 .8212433L.07998657 .8132324M.021987915 .5939789C.066986087 .5439911 .085998538 .51101687 .10499573 .44606019 .11199951 .42007447 .11999512 .41107179 .13699341 .41107179 .16899109 .41107179 .19999695 .4530487 .19999695 .49601747 .19999695 .5419922 .15499878 .5689697 .025985718 .60298159L.021987915 .5939789M.025985718 .2278595C.09498596 .20281983 .10598755 .1907959 .10598755 .13775635 .10598755 .10169983 .100997928 .057632448 .08999634-.0104522709 .08799744-.021469117 .08699036-.032485963 .08699036-.040496828 .08699036-.058532716 .09899902-.0695343 .11999512-.0695343 .14299011-.0695343 .16799927-.058532716 .18699646-.041503908 .20799256-.021469117 .21798706 .004562378 .21798706 .036605836 .21798706 .06465149 .21199036 .092681888 .19799805 .13174439 .18699646 .16278076 .18499756 .17077637 .18499756 .18379212 .18499756 .19380188 .18798828 .20883179 .19299317 .22886658L.29899598 .6119995 .2869873 .6159973C.2559967 .5389862 .19299317 .3960724 .1579895 .3219757 .115997318 .23286438 .11399841 .22886658 .09599304 .22886658 .08699036 .22886658 .06298828 .23286438 .0289917 .23988343L.025985718 .2278595Z"/>
<clipPath id="clip_6">
<path transform="matrix(1,0,0,-1,0,297.3031)" d="M27.87395 9.53096H167.92005V153.53096H27.87395Z"/>
</clipPath>
<path id="font_3_3592" d="M.95700076 .62597659C.96099856 .62597659 .96398928 .6289673 .96398928 .63197329 .96398928 .634964 .96199038 .63797 .95700076 .64097598 .9039917 .68704226 .8869934 .700058 .83399966 .74113467 .7979889 .70106509 .7869873 .68904116 .7509918 .64697268H.54599V.78019717C.5799866 .79222109 .59199526 .79922488 .59199526 .8082428 .59199526 .8202667 .5649872 .8272705 .49899293 .8322754 .48298646 .8332825 .45799256 .8352814 .42599488 .83828738 .42900086 .7982178 .42999269 .78019717 .42999269 .7591553V.64697268H.11898804C.099990848 .64697268 .05999756 .65197756 .037994386 .6569824L.04499817 .6199646C.07199097 .6239624 .099990848 .62597659 .11999512 .62597659H.269989C.29499818 .47485353 .34999085 .35375978 .44699098 .22766114 .3939972 .16661072 .36799623 .14059448 .32199098 .1015625 .23799134 .03050232 .1639862-.013534546 .034988405-.07157898L.037994386-.08258057C.15299988-.05355835 .21899414-.030548096 .2899933 .003479004 .37298585 .043518068 .43899537 .08955383 .5089874 .15660095 .58699038 .075546268 .651001 .027496338 .73999026-.01953125 .7869873-.044555665 .85598757-.0725708 .86898806-.0725708 .8739929-.0725708 .8789978-.068573 .8799896-.061569215 .8849945-.041549684 .8869934-.03755188 .8929901-.024536133 .9109955 .016494751 .9339905 .037506105 .9779968 .055526735L.97898867 .0655365C.8839874 .076538089 .82199099 .092559818 .74198916 .12657166 .6799927 .15260315 .6279907 .18162537 .57299807 .22164917 .6380005 .29270936 .6819916 .36276246 .7200012 .4568329 .74198916 .5108795 .7619934 .57392886 .7739868 .62597659H.95700076M.6499939 .62597659C.6269989 .50787356 .57699587 .39878846 .49499513 .2866974 .44299317 .33773805 .40299989 .3867798 .36499024 .44682313 .32699586 .5088806 .31098939 .5469055 .2889862 .62597659H.6499939Z"/>
<clipPath id="clip_7">
<path transform="matrix(1,0,0,-1,0,297.3031)" d="M129.1699 112.119H269.216V256.11903H129.1699Z"/>
</clipPath>
<clipPath id="clip_8">
<path transform="matrix(1,0,0,-1,0,297.3031)" d="M133.8263 152.1771H186.1435V188.23865H133.8263Z"/>
</clipPath>
<path id="font_3_1000" d="M.9059906 .49098207C.848999 .43092347 .7749939 .37086488 .68299868 .3097992 .57099917 .23674011 .48298646 .19268799 .34498597 .14364624 .34498597 .15866089 .34498597 .17167664 .34498597 .17767334 .34498597 .2667694 .35499574 .46395875 .3639984 .5420227 .36698915 .5700531 .37199403 .5930786 .37998963 .61209109 .3849945 .624115 .38598634 .6281128 .38598634 .6371155 .38598634 .6621399 .36698915 .6831665 .32499696 .7041931 .28199769 .72720339 .23799134 .7402191 .20698548 .7402191 .18998719 .7402191 .17799378 .7362213 .16499329 .72720339 .22698975 .7081909 .24499512 .6841736 .25 .61509707 .25299073 .5700531 .25698854 .39889527 .25698854 .29179383 .25698854 .18067932 .2559967 .16166687 .24699402 .13864136 .24099732 .12162781 .24099732 .12162781 .24099732 .114608768 .24099732 .0745697 .3039856-.005508423 .33499146-.005508423 .34498597-.005508423 .35699464 .00050354006 .36499024 .009506226 .38398744 .028533936 .3849945 .029525757 .4139862 .044540407 .5549927 .118621829 .6309967 .16766358 .7049866 .23072815 .79299929 .30680848 .84799197 .37286378 .91600039 .48397828L.9059906 .49098207Z"/>
<clipPath id="clip_9">
<path transform="matrix(1,0,0,-1,0,297.3031)" d="M107.816 43.0959H166.6445V82.5959H107.816Z"/>
</clipPath>
<path id="font_3_1006" d="M.23999024-.06253052C.34999085-.019454956 .42099 .025604248 .5019989 .10173035 .61499026 .20889282 .69799807 .33909608 .7789917 .53826907 .8069916 .6083679 .8069916 .6083679 .82099917 .6243744 .83200076 .6363678 .83599856 .64437869 .83599856 .65538027 .83599856 .68836978 .7519989 .7643738 .71598818 .7643738 .70799258 .7643738 .69999697 .7613678 .68899539 .7533722 .66999819 .7393799 .6529999 .734375 .5799866 .7213745 .49598695 .70736697 .36499024 .6923828 .32299806 .6923828 .26098634 .6923828 .23498535 .70536807 .20799256 .7513733 .20298767 .7413788 .20199585 .7373657 .20199585 .7293701 .20199585 .67736819 .2689972 .5993805 .31399537 .5993805 .32398988 .5993805 .32998658 .6013794 .34599305 .6073761 .37399293 .6193695 .4099884 .6293793 .46398927 .6413727 .5339966 .6563721 .6519928 .67637637 .6719971 .67637637 .68499758 .67637637 .68899539 .67437747 .68899539 .66638186 .68899539 .6493683 .6639862 .5643158 .6429901 .5102234 .6119995 .5042114 .49699403 .48316957 .4149933 .4701538 .33099366 .45611573 .30899049 .453125 .2829895 .453125 .24598694 .453125 .21798706 .46914674 .19198609 .5042114 .18899536 .49519349 .18798828 .49118043 .18798828 .48617555 .18798828 .43711854 .2579956 .35610963 .30099488 .35610963 .30999757 .35610963 .31599427 .35812379 .32899476 .36412049 .3869934 .39411927 .47499085 .41911317 .61898806 .44711305 .522995 .22892761 .39698792 .06567383 .23399353-.052505495L.23999024-.06253052Z"/>
<clipPath id="clip_10">
<path transform="matrix(1,0,0,-1,0,297.3031)" d="M208.7534 149.8002H267.5819V189.3002H208.7534Z"/>
</clipPath>
<path id="font_3_988" d="M.59199526 .42582704C.6539917 .35073854 .6839905 .30067445 .723999 .20455933 .621994 .1865387 .42199708 .16252136 .2809906 .1525116 .32199098 .21757508 .3809967 .31970216 .45199586 .44784547 .5389862 .6060333 .5389862 .6060333 .5589905 .6300659 .57299807 .64707949 .5779877 .6560974 .5779877 .66911318 .5779877 .6891327 .5569916 .7131653 .5189972 .7361908 .47599793 .7622223 .4269867 .77923586 .3939972 .77923586 .37998963 .77923586 .37098695 .77723696 .35899354 .77124026 .40899659 .74620059 .4269867 .72517397 .4269867 .6901398 .4269867 .6611023 .4059906 .59002688 .3600006 .46487428 .31999208 .35473634 .2639923 .21858216 .23098755 .15150452 .21899414 .15049744 .21099854 .14950562 .20599365 .14950562 .18099976 .14950562 .16799927 .15350342 .1519928 .16452027 .1329956 .17852783 .12199402 .19255066 .10699463 .22257996 .101989749 .21057129 .099990848 .2035675 .099990848 .19255066 .099990848 .16351319 .11199951 .13250733 .13999939 .086502078 .16799927 .040496828 .19099427 .020507813 .21598816 .020507813 .22599793 .020507813 .23599243 .023498536 .24598694 .03050232 .2619934 .040496828 .2619934 .040496828 .2749939 .04449463 .30499269 .053497316 .33699037 .0625 .3889923 .07550049 .6139984 .13049317 .6469879 .13949585 .73799136 .16752625 .7489929 .14149475 .7529907 .12649536 .7669983 .07350159 .7769928 .036499025 .7859955 .025497437 .80599978 .025497437 .84098818 .025497437 .8730011 .07650757 .8730011 .13349915 .8730011 .17652893 .85598757 .21257019 .8109894 .26364137 .7579956 .32470704 .6779938 .3887787 .6009979 .4328308L.59199526 .42582704Z"/>
<clipPath id="clip_11">
<path transform="matrix(1,0,0,-1,0,297.3031)" d="M207.8833 52.58266H268.45204V93.58266H207.8833Z"/>
</clipPath>
<path id="font_12_963" d="M.6753845 .7217407C.644516 .7161255 .6258087 .7151947 .554718 .7151947H.2796936C.20953369 .7151947 .19082642 .7161255 .15901184 .7217407V.607605C.18894959 .61135867 .20111084 .6123047 .27781678 .6123047H.5565796C.6332855 .6123047 .6463928 .61135867 .6753845 .607605V.7217407M.73431399 .3779297C.8072815 .3779297 .8213196 .37698365 .8531189 .37324525V.48458863C.8203888 .47895814 .80166628 .47801209 .7324524 .47801209H.18521118C.115982059 .47801209 .09727478 .47895814 .06454468 .48458863V.37324525C.096343997 .37698365 .11038208 .3779297 .18333435 .3779297H.4106598C.40411378 .19624329 .33114625 .103530887 .14779663 .04547119 .18614197 .00894165 .20205689-.011657715 .22450257-.05848694 .4359131 .022994996 .5238495 .14660645 .5341339 .3779297H.73431399M.93263247 .67684939C.91018679 .7320404 .8877411 .76945498 .8503113 .819046L.782959 .7947235C.81477358 .7507477 .8419037 .70303347 .8634186 .64971926L.93263247 .67684939M.66041567 .75823977C.69503787 .70957949 .71655276 .67123416 .7427368 .60853579L.8128967 .63475039C.78671267 .6964874 .76519778 .733902 .7296448 .78256228L.66041567 .75823977Z"/>
<clipPath id="clip_13">
<path transform="matrix(1,0,0,-1,0,297.3031)" d="M146.6464 46.98453H251.73929V152.07744H146.6464Z"/>
</clipPath>
<clipPath id="clip_14">
<path transform="matrix(1,0,0,-1,0,297.3031)" d="M129.1699 9.53096H269.216V153.53096H129.1699Z"/>
</clipPath>
<path id="font_3_1799" d="M.068984989 .7401123C.09899902 .7441101 .11399841 .7451172 .13598633 .7451172H.39898683C.4039917 .7451172 .40899659 .7481079 .40899659 .7511139 .40899659 .7541046 .40699769 .7571106 .4039917 .7601166 .36499024 .7951813 .35299684 .80519106 .31199647 .83625796 .28399659 .8061981 .27598573 .7971802 .24899292 .7661133H.13598633C.11199951 .7661133 .08898926 .76911929 .06399536 .77412417L.068984989 .7401123M.04598999 .61509707C.07499695 .62008669 .09098816 .62109377 .117996219 .62109377H.41799928C.42599488 .62109377 .43099977 .6240845 .43099977 .6280823 .43099977 .6300812 .42900086 .6320801 .4249878 .63708499 .38598634 .6700897 .37298585 .6800995 .32998658 .71110537 .30299378 .6830902 .29499818 .6730957 .2689972 .64208987H.117996219C.08898926 .64208987 .067993167 .64408877 .038986207 .65008547L.04598999 .61509707M.07199097 .48518373C.099990848 .49020387 .11399841 .49121095 .13699341 .49121095H.3869934C.3939972 .49121095 .39898683 .49420167 .39898683 .49819947 .39898683 .50019839 .39698792 .50320437 .3929901 .5082092 .35699464 .5391693 .34498597 .5491638 .30699159 .5791321 .28199769 .55015566 .27398683 .5411682 .25099183 .51220706H.13699341C.10998535 .51220706 .09498596 .51420596 .06498718 .5201874L.07199097 .48518373M.07299805 .35481263C.099990848 .35983277 .11399841 .36082459 .13398743 .36082459H.3880005C.3939972 .36082459 .397995 .3628235 .397995 .3668213 .397995 .36883546 .3959961 .37182618 .3919983 .37582398 .35598756 .4079132 .34498597 .4179535 .30699159 .447052 .27999879 .4199524 .272995 .41093446 .24798584 .38183595H.13398743C.10699463 .38183595 .08999634 .38383485 .06498718 .38885499L.07299805 .35481263M.17599488 .00730896H.2679901V-.015670777C.2689972-.029663086 .27598573-.032669069 .30099488-.032669069 .32699586-.032669069 .35299684-.027664185 .36099244-.02166748 .3659973-.017669678 .36799623-.013671875 .36799623-.0046844484 .36799623 .018310547 .36799623 .018310547 .36698915 .04333496 .36499024 .09440613 .36499024 .09741211 .36499024 .13746643V.20755005C.38598634 .21755982 .394989 .22457886 .394989 .23158264 .394989 .23657227 .3919983 .24058533 .3829956 .24757385 .35398866 .2696228 .34399415 .27764894 .31098939 .3006897 .28799439 .27764894 .2809906 .27062989 .2599945 .24658203H.18499756C.13699341 .27464295 .12199402 .2836609 .070999149 .30770875 .07598877 .24157715 .07699585 .21255493 .07699585 .14846802 .07699585 .09440613 .07699585 .06236267 .07398987-.058654787 .07499695-.074645999 .08099365-.07763672 .10899353-.07763672 .16099549-.07763672 .17599488-.072647098 .17599488-.05265808 .17599488-.05265808 .17599488-.05065918 .17599488-.04866028V.00730896M.17599488 .22558594H.2679901V.028320313H.17599488V.22558594M.72898867 .72610476C.7569885 .7351074 .7679901 .7421112 .7679901 .7501068 .7679901 .7611084 .7539978 .7651062 .68899539 .77212527 .6749878 .77412417 .6519928 .7761383 .6239929 .7801361 .6299896 .72410586 .6309967 .6580963 .6309967 .38885499 .6309967 .24157715 .6299896 .13946533 .6269989 .04133606 .6269989 .02331543 .6329956 .019317627 .6599884 .019317627 .69599917 .019317627 .71798709 .02230835 .72698977 .029312134 .7319946 .033325197 .73298647 .037322999 .73298647 .047332765 .7299957 .19554138 .72898867 .30169679 .72898867 .36582948V.72610476M.9169922 .7651062C.94799807 .7751312 .95899966 .7811432 .95899966 .7911682 .95899966 .80319216 .94099429 .808197 .8819885 .814209 .8659973 .81521609 .83898928 .81822207 .80799868 .821228 .81399539 .7681122 .8149872 .6891022 .8149872 .40490724 .8149872 .14646912 .81399539 .057357789 .8109894-.051651 .8109894-.05265808 .8109894-.054656984 .8109894-.055648805 .8109894-.071640018 .81900027-.0766449 .84999087-.0766449 .8699951-.0766449 .8969879-.073638919 .9059906-.07064819 .9189911-.06564331 .9229889-.060653688 .9229889-.044662477 .92099 .050338746 .9169922 .4269867 .9169922 .6001129V.7651062M.34999085-.09162903C.4019928-.045654298 .43099977-.013671875 .45999146 .032318117 .5299988 .13946533 .5519867 .25559999 .55400088 .5221863 .55599978 .70910647 .55599978 .70910647 .5569916 .7671051 .58299258 .7761383 .59298709 .78215029 .59298709 .79016116 .59298709 .7951813 .58898928 .7991791 .58200076 .80218508 .56999209 .8061981 .56399539 .8072052 .44599916 .8202362 .45098878 .7641144 .45298768 .70809939 .45298768 .57014468 .45298768 .37982179 .44699098 .24757385 .43299867 .16349793 .4169922 .06236267 .394989 .002319336 .34098817-.08363342L.34999085-.09162903Z"/>
<clipPath id="clip_15">
<path transform="matrix(1,0,0,-1,0,297.3031)" d="M208.7534 43.0959H267.5819V82.5959H208.7534Z"/>
</clipPath>
<path id="font_3_963" d="M.23799134 .7381592C.28199769 .65608218 .33399964 .62109377 .4119873 .62109377 .47499085 .62109377 .59199526 .63508608 .6599884 .6510925 .70399478 .66108706 .71798709 .67108157 .71798709 .69007876 .71798709 .70710757 .70599368 .7231293 .68099978 .739151 .6589966 .7541809 .6429901 .7601929 .6279907 .7601929 .6159973 .7601929 .6100006 .7581787 .59599307 .7511749 .5589905 .72914126 .54499819 .72413638 .5079956 .7131195 .45799256 .69810488 .40699769 .69007876 .36898805 .69007876 .32099916 .69007876 .28599549 .7061157 .24699402 .74516299L.23799134 .7381592M.2689972-.076538089C.36898805-.017456055 .43798829 .04866028 .49499513 .14079285 .54100039 .21591187 .58299258 .32409669 .58299258 .36813355 .58299258 .39413453 .57199099 .4061432 .5149994 .43914796 .56799319 .44514466 .60899356 .44714356 .6599884 .44714356 .71899417 .44714356 .7899933 .44114686 .84799197 .43113709 .85899356 .42913819 .86299136 .42913819 .8659973 .42913819 .8919983 .42913819 .9079895 .44213868 .9079895 .46313478 .9079895 .48312379 .8889923 .5041199 .8509979 .52311709 .82699587 .53611758 .8029938 .54411318 .7869873 .54411318 .7779999 .54411318 .769989 .54211428 .7579956 .53611758 .73399356 .52511599 .70599368 .5181122 .67099 .51512148 .5009918 .49612428 .45700074 .49012757 .36698915 .47613526 .21798706 .45314027 .20899964 .45214845 .17799378 .45214845 .13798523 .45214845 .10699463 .47013856 .08198547 .50712588 .07899475 .49612428 .07798767 .49212647 .07798767 .48713685 .07798767 .46813966 .085998538 .44914247 .10598755 .4241333 .13899231 .3801422 .16899109 .35813905 .19400025 .35813905 .20698548 .35813905 .21798706 .36114503 .23699951 .37113954 .28599549 .3951416 .38198854 .42314149 .44599916 .43113709 .45899964 .41714479 .46199037 .4081421 .46199037 .38414 .46199037 .33711244 .43899537 .24195862 .41099549 .17085266 .37199403 .07469177 .32899476 .006591797 .26098634-.06852722L.2689972-.076538089M.82199099 .8633423C.871994 .82528689 .9049988 .78923037 .9359894 .739151 .95098879 .7151184 .95700076 .7101135 .96899417 .7101135 .9869995 .7101135 .9989929 .72613528 .9989929 .749176 .9989929 .7782135 .9830017 .8022461 .94599917 .82829287 .91799929 .8483124 .8819885 .8643341 .83099368 .87835696L.82199099 .8633423M.71798709 .7922363C.7589874 .7571869 .79299929 .71713259 .81799319 .67308047 .84298709 .6260834 .84599307 .62309268 .8619995 .62309268 .8809967 .62309268 .8939972 .63908389 .8939972 .664093 .8939972 .71713259 .8299866 .7732086 .7279968 .80926516L.71798709 .7922363Z"/>
</defs>
<g clip-path="url(#clip_0)">
<path transform="matrix(1,0,0,-1,0,297.3031)" d="M72.30523 260.3031H224.9979C235.3582 260.3031 241.5743 260.3031 245.7185 258.573 251.6926 256.3986 256.3986 251.6926 258.573 245.7185 260.3031 241.5743 260.3031 235.3582 260.3031 224.9979V72.30523C260.3031 61.94494 260.3031 55.72876 258.573 51.58465 256.3986 45.61054 251.6926 40.90451 245.7185 38.73011 241.5743 37 235.3582 37 224.9979 37H72.30523C61.94494 37 55.72876 37 51.58465 38.73011 45.61054 40.90451 40.90451 45.61054 38.73011 51.58465 37 55.72876 37 61.94494 37 72.30523V224.9979C37 235.3582 37 241.5743 38.73011 245.7185 40.90451 251.6926 45.61054 256.3986 51.58465 258.573 55.72876 260.3031 61.94494 260.3031 72.30523 260.3031ZM72.30523 260.3031"/>
</g>
<g clip-path="url(#clip_1)">
<path transform="matrix(1,0,0,-1,0,297.3031)" d="M72.77079 247.4328H224.5323C231.2525 247.4328 235.2845 247.4328 237.9726 246.3106 241.8477 244.9002 244.9002 241.8477 246.3106 237.9726 247.4328 235.2845 247.4328 231.2524 247.4328 224.5323V72.77079C247.4328 66.05064 247.4328 62.01856 246.3106 59.3305 244.9002 55.45543 241.8477 52.40289 237.9726 50.99248 235.2845 49.87025 231.2525 49.87025 224.5323 49.87025H72.77079C66.05065 49.87025 62.01856 49.87025 59.33051 50.99248 55.45544 52.40289 52.4029 55.45543 50.99249 59.3305 49.87026 62.01856 49.87026 66.05064 49.87026 72.77079V224.5323C49.87026 231.2524 49.87026 235.2845 50.99249 237.9726 52.4029 241.8477 55.45544 244.9002 59.33051 246.3106 62.01856 247.4328 66.05065 247.4328 72.77079 247.4328ZM72.77079 247.4328" fill="#ffffff"/>
</g>
<g clip-path="url(#clip_2)">
<use data-text="&#x8aad;" xlink:href="#font_3_3233" transform="matrix(72,0,0,-72,163.1929,136.4655)" fill="#ffffff"/>
</g>
<g clip-path="url(#clip_4)">
<path transform="matrix(1,0,0,-1,0,297.3031)" d="M48.02991 144.1976H151.12282V247.2905H48.02991Z"/>
</g>
<g clip-path="url(#clip_5)">
<use data-text="&#x6f22;" xlink:href="#font_3_1533" transform="matrix(72,0,0,-72,63.57635,122.5441)" fill="#ffffff"/>
</g>
<g clip-path="url(#clip_6)">
<use data-text="&#x6587;" xlink:href="#font_3_3592" transform="matrix(72,0,0,-72,61.89698,225.13214)"/>
</g>
<g clip-path="url(#clip_7)">
<use data-text="&#x8aad;" xlink:href="#font_3_3233" transform="matrix(72,0,0,-72,163.1929,122.5441)"/>
</g>
<g clip-path="url(#clip_8)">
<use data-text="&#x30ec;" xlink:href="#font_3_1000" transform="matrix(16.24621,0,0,-16.24621,151.8618,130.9918)"/>
</g>
<g clip-path="url(#clip_9)">
<use data-text="&#x30f2;" xlink:href="#font_3_1006" transform="matrix(18,0,0,-18,128.2303,238.5472)"/>
</g>
<g clip-path="url(#clip_10)">
<use data-text="&#x30e0;" xlink:href="#font_3_988" transform="matrix(18,0,0,-18,229.1677,131.8429)"/>
</g>
<g clip-path="url(#clip_11)">
<use data-text="&#x30c7;" xlink:href="#font_12_963" transform="matrix(18,0,0,-18,229.7486,232.37865)" fill="#ffffff"/>
</g>
<g clip-path="url(#clip_13)">
<path transform="matrix(1,0,0,-1,0,297.3031)" d="M147.6464 47.98453H250.73929V151.07744H147.6464Z"/>
</g>
<g clip-path="url(#clip_14)">
<use data-text="&#x8a13;" xlink:href="#font_3_1799" transform="matrix(72,0,0,-72,163.1929,225.13214)" fill="#ffffff"/>
</g>
<g clip-path="url(#clip_15)">
<use data-text="&#x30c7;" xlink:href="#font_3_963" transform="matrix(18,0,0,-18,229.1677,238.5472)" fill="#ffffff"/>
</g>
</svg>
