<?xml version="1.0" standalone="no"?>
<!DOCTYPE svg PUBLIC "-//W3C//DTD SVG 20010904//EN"
 "http://www.w3.org/TR/2001/REC-SVG-20010904/DTD/svg10.dtd">
<svg version="1.0" xmlns="http://www.w3.org/2000/svg"
 width="500.000000pt" height="500.000000pt" viewBox="0 0 500.000000 500.000000"
 preserveAspectRatio="xMidYMid meet">

<g transform="translate(0.000000,500.000000) scale(0.100000,-0.100000)"
fill="#000000" stroke="none">
<path d="M2240 4435 c-435 -61 -816 -251 -1123 -561 -290 -294 -470 -643 -543
-1054 -27 -149 -27 -491 0 -640 73 -412 254 -762 543 -1053 225 -227 470 -379
773 -480 390 -130 830 -130 1220 0 303 101 549 254 772 480 151 152 230 257
327 432 102 182 178 401 217 621 27 149 27 491 0 640 -75 421 -258 772 -557
1067 -318 314 -697 496 -1149 552 -113 15 -363 12 -480 -4z m397 -105 c573
-44 1078 -341 1397 -819 31 -47 53 -88 49 -92 -5 -4 -362 -212 -795 -462
l-788 -455 0 919 c0 505 3 919 8 919 4 0 62 -5 129 -10z"/>
</g>
</svg>
