<svg version="1.1" viewBox="0.0 0.0 500.0 500.0" fill="none" stroke="none" stroke-linecap="square" stroke-miterlimit="10" xmlns:xlink="http://www.w3.org/1999/xlink" xmlns="http://www.w3.org/2000/svg"><clipPath id="p.0"><path d="m0 0l500.0 0l0 500.0l-500.0 0l0 -500.0z" clip-rule="nonzero"/></clipPath><g clip-path="url(#p.0)"><path fill="#000000" fill-opacity="0.0" d="m0 0l500.0 0l0 500.0l-500.0 0z" fill-rule="evenodd"/><path fill="#000000" d="m45.690845 237.9474l0 -129.61977l0 0c0 -42.95771 34.8241 -77.781815 77.781815 -77.781815l259.3013 0l0 0c20.629028 0 40.413116 8.194843 55.00003 22.781765c14.586945 14.586918 22.781769 34.37103 22.781769 55.00005l0 77.76936l36.725647 0l-51.850403 51.850403l-51.850403 -51.850403l36.725647 0l0 -77.76936c0 -26.251366 -21.280945 -47.532295 -47.532288 -47.532295l-259.3013 0l0 0c-26.251358 0 -47.532288 21.28093 -47.532288 47.532295l0 129.61977z" fill-rule="evenodd"/><path fill="#000000" d="m460.24973 244.23087l0 129.61975l0 0c0 42.957703 -34.824097 77.78183 -77.7818 77.78183l-259.3013 0l0 0c-20.62902 0 -40.41313 -8.194855 -55.000046 -22.781769c-14.586922 -14.586914 -22.781769 -34.371033 -22.781769 -55.00006l0 -77.76935l-36.72563 0l51.850395 -51.850403l51.85039 51.850403l-36.72563 0l0 77.76935c0 26.251373 21.280937 47.532288 47.532295 47.532288l259.3013 0l0 0c26.251373 0 47.532288 -21.280914 47.532288 -47.532288l0 -129.61975z" fill-rule="evenodd"/><path fill="#000000" fill-opacity="0.0" d="m325.21967 345.05432l-57.51181 36.22049" fill-rule="evenodd"/><path stroke="#000000" stroke-width="7.643044619422572" stroke-linejoin="round" stroke-linecap="butt" d="m325.21967 345.05432l-57.51181 36.22049" fill-rule="evenodd"/><path fill="#000000" fill-opacity="0.0" d="m374.6873 170.2549l2.0787354 120.88188" fill-rule="evenodd"/><path stroke="#000000" stroke-width="11.958005249343833" stroke-linejoin="round" stroke-linecap="butt" d="m374.6873 170.2549l2.0787354 120.88188" fill-rule="evenodd"/><path fill="#000000" d="m388.00763 175.77646l1.9203491 -47.763138l-90.49176 -39.51201l-1.9203491 47.763138z" fill-rule="evenodd"/><path stroke="#000000" stroke-width="11.958005249343833" stroke-linejoin="round" stroke-linecap="butt" d="m388.00763 175.77646l1.9203491 -47.763138l-90.49176 -39.51201l-1.9203491 47.763138z" fill-rule="evenodd"/><path fill="#000000" fill-opacity="0.0" d="m306.45728 138.07158l0.06298828 37.5748" fill-rule="evenodd"/><path stroke="#000000" stroke-width="11.958005249343833" stroke-linejoin="round" stroke-linecap="butt" d="m306.45728 138.07158l0.06298828 37.5748" fill-rule="evenodd"/><path fill="#000000" fill-opacity="0.0" d="m244.79128 323.21625l-0.13908386 -25.639008l-128.11288 -55.935806l0.13907623 25.639023z" fill-rule="evenodd"/><path stroke="#000000" stroke-width="7.643044619422572" stroke-linejoin="round" stroke-linecap="butt" d="m244.79128 323.21625l-0.13908386 -25.639008l-128.11288 -55.935806l0.13907623 25.639023z" fill-rule="evenodd"/><path fill="#000000" fill-opacity="0.0" d="m128.26117 271.0231l-0.25196838 78.20471" fill-rule="evenodd"/><path stroke="#000000" stroke-width="11.464566929133857" stroke-linejoin="round" stroke-linecap="butt" d="m128.26117 271.0231l-0.25196838 78.20471" fill-rule="evenodd"/><path fill="#000000" fill-opacity="0.0" d="m131.57593 320.84116l136.12598 60.44095" fill-rule="evenodd"/><path stroke="#000000" stroke-width="7.643044619422572" stroke-linejoin="round" stroke-linecap="butt" d="m131.57593 320.84116l136.12598 60.44095" fill-rule="evenodd"/><path fill="#000000" fill-opacity="0.0" d="m245.47552 323.323l0.09806824 -26.709717l79.58696 -55.243027l-0.09805298 26.709702z" fill-rule="evenodd"/><path stroke="#000000" stroke-width="7.643044619422572" stroke-linejoin="round" stroke-linecap="butt" d="m245.47552 323.323l0.09806824 -26.709717l79.58696 -55.243027l-0.09805298 26.709702z" fill-rule="evenodd"/><path fill="#000000" fill-opacity="0.0" d="m267.7167 280.65256l1.0078735 127.33856" fill-rule="evenodd"/><path stroke="#000000" stroke-width="11.464566929133857" stroke-linejoin="round" stroke-linecap="butt" d="m267.7167 280.65256l1.0078735 127.33856" fill-rule="evenodd"/><path fill="#000000" d="m101.280815 232.4647l89.56692 -64.587296l148.96065 64.98988l-89.56691 64.587296z" fill-rule="evenodd"/><path stroke="#000000" stroke-width="11.4251968503937" stroke-linejoin="round" stroke-linecap="butt" d="m101.280815 232.4647l89.56692 -64.587296l148.96065 64.98988l-89.56691 64.587296z" fill-rule="evenodd"/><path fill="#000000" fill-opacity="0.0" d="m229.08142 213.40393l58.132416 -41.918823l96.681244 42.180115l-58.132416 41.918808z" fill-rule="evenodd"/><path stroke="#000000" stroke-width="11.4251968503937" stroke-linejoin="round" stroke-linecap="butt" d="m229.08142 213.40393l58.132416 -41.918823l96.681244 42.180115l-58.132416 41.918808z" fill-rule="evenodd"/><path fill="#000000" fill-opacity="0.0" d="m320.60336 241.36597l3.24411 136.0315" fill-rule="evenodd"/><path stroke="#000000" stroke-width="11.464566929133857" stroke-linejoin="round" stroke-linecap="butt" d="m320.60336 241.36597l3.24411 136.0315" fill-rule="evenodd"/></g></svg>
